<svg xmlns="http://www.w3.org/2000/svg" width="12" height="12" viewBox="0 0 12 12">
    <path fill="#9ca3af" d="M64.3875265,105.687501 C63.7310308,106.269005 62.8780305,106.6 62.0000832,106.6 C60.0150698,106.6 58.4001024,104.985024 58.4001024,103 C58.4001024,101.014976 60.0150698,99.4 62.0000832,99.4 C62.6820764,99.4 63.342028,99.5939968 63.912521,99.9549952 L62.8670226,101 C62.5670178,101.282995 62.4000299,101.474995 62.4000299,101.8 C62.4000299,102.100006 62.6335262,102.6 63.2000256,102.6 L67.2000043,102.6 C67.6375059,102.6 68,102.262502 68,101.8 L68,97.8 C68,97.2329984 67.5,97 67.2000043,97 C66.8750012,97 66.6835014,97.1670016 66.4000085,97.4669952 L65.6345086,98.2324992 C64.591519,97.434496 63.321049,97 61.999968,97 C58.6914416,97 56,99.691456 56,103 C56,106.308544 58.6914416,109 61.999968,109 C63.4664562,109 64.8564008,108.480998 65.9818988,107.481024 C66.3368921,107.166528 66.3998933,106.78752 66.3998933,106.600026 C66.3998933,106.206528 66.0808934,105.400026 65.1998997,105.400026 C64.9189028,105.400026 64.7129007,105.399026 64.3873985,105.687526 L64.3875265,105.687501 Z" transform="translate(-56 -97)"></path>
</svg>